<?xml version="1.0" encoding="utf-8"?>
<svg viewBox="0 0 500 500" xmlns="http://www.w3.org/2000/svg">
  <g fill="#96c03a" transform="matrix(4.116292, 0, 0, 4.014, -86.729279, 23.122763)" style="">
    <path d="m46.97 69.267a6.833 6.833 0 0 1 -13.667 0v-27.334a6.834 6.834 0 0 1 13.667 0zm29 35.626a6.833 6.833 0 0 1 -13.667 0v-27.334a6.834 6.834 0 0 1 13.667 0zm24.125 0a6.833 6.833 0 0 1 -13.667 0v-27.334a6.834 6.834 0 0 1 13.667 0zm29.125-35.626a6.833 6.833 0 0 1 -13.667 0v-27.334a6.834 6.834 0 0 1 13.667 0z"/>
    <path d="m111.47 35.018v49.132a5.7 5.7 0 0 1 -5.7 5.7h-48.932a5.7 5.7 0 0 1 -5.701-5.7v-49.132zm-30.165-28.335c-16.386 0-29.707 10.915-30.105 24.501h60.21c-.4-13.587-13.721-24.501-30.105-24.501zm-12.961 15.821c-1.865 0-3.379-1.513-3.379-3.378a3.38 3.38 0 0 1 6.758 0 3.38 3.38 0 0 1 -3.379 3.378zm25.937 0a3.379 3.379 0 1 1 .002-6.758 3.379 3.379 0 0 1 -.002 6.758z"/>
    <path d="m70.082 11.202a.908.908 0 0 1 -1.512 1.003l-7.154-10.796a.907.907 0 0 1 1.514-1.002zm22.432 0a.907.907 0 0 0 1.513 1.003l7.154-10.796a.907.907 0 0 0 -1.514-1.002z"/>
  </g>
</svg>